<mxfile host="app.diagrams.net" modified="2021-11-11T03:34:07.534Z" agent="5.0 (Macintosh; Intel Mac OS X 10_14_6) AppleWebKit/537.36 (KHTML, like Gecko) Chrome/95.0.4638.69 Safari/537.36" etag="gQEILcTO-icHR6wgEnOV" version="15.5.1" type="github">
  <diagram id="MqLFOB0qUGa3AoY5VixN" name="第 1 页">
    <mxGraphModel dx="1026" dy="1658" grid="1" gridSize="10" guides="1" tooltips="1" connect="1" arrows="1" fold="1" page="1" pageScale="1" pageWidth="827" pageHeight="1169" math="0" shadow="0">
      <root>
        <mxCell id="0" />
        <mxCell id="1" parent="0" />
        <mxCell id="_2JUVef5gmnUwdvLhLRF-8" style="edgeStyle=orthogonalEdgeStyle;rounded=0;orthogonalLoop=1;jettySize=auto;html=1;exitX=0.5;exitY=0;exitDx=0;exitDy=0;entryX=0.5;entryY=1;entryDx=0;entryDy=0;entryPerimeter=0;" edge="1" parent="1" source="_2JUVef5gmnUwdvLhLRF-1" target="_2JUVef5gmnUwdvLhLRF-30">
          <mxGeometry relative="1" as="geometry">
            <mxPoint x="510" y="140" as="targetPoint" />
          </mxGeometry>
        </mxCell>
        <mxCell id="_2JUVef5gmnUwdvLhLRF-9" value="&lt;span style=&quot;font-size: 12px ; background-color: rgb(248 , 249 , 250)&quot;&gt;消费&lt;/span&gt;" style="edgeLabel;html=1;align=center;verticalAlign=middle;resizable=0;points=[];" vertex="1" connectable="0" parent="_2JUVef5gmnUwdvLhLRF-8">
          <mxGeometry x="-0.0444" y="-2" relative="1" as="geometry">
            <mxPoint as="offset" />
          </mxGeometry>
        </mxCell>
        <mxCell id="_2JUVef5gmnUwdvLhLRF-14" style="edgeStyle=orthogonalEdgeStyle;rounded=0;orthogonalLoop=1;jettySize=auto;html=1;exitX=0.5;exitY=1;exitDx=0;exitDy=0;entryX=0.5;entryY=0;entryDx=0;entryDy=0;entryPerimeter=0;" edge="1" parent="1" source="_2JUVef5gmnUwdvLhLRF-1" target="_2JUVef5gmnUwdvLhLRF-12">
          <mxGeometry relative="1" as="geometry" />
        </mxCell>
        <mxCell id="_2JUVef5gmnUwdvLhLRF-15" style="edgeStyle=orthogonalEdgeStyle;rounded=0;orthogonalLoop=1;jettySize=auto;html=1;exitX=0.5;exitY=1;exitDx=0;exitDy=0;" edge="1" parent="1" source="_2JUVef5gmnUwdvLhLRF-1" target="_2JUVef5gmnUwdvLhLRF-13">
          <mxGeometry relative="1" as="geometry" />
        </mxCell>
        <mxCell id="_2JUVef5gmnUwdvLhLRF-33" style="edgeStyle=orthogonalEdgeStyle;rounded=0;orthogonalLoop=1;jettySize=auto;html=1;exitX=0.5;exitY=0;exitDx=0;exitDy=0;entryX=0.5;entryY=1;entryDx=0;entryDy=0;entryPerimeter=0;" edge="1" parent="1" source="_2JUVef5gmnUwdvLhLRF-1" target="_2JUVef5gmnUwdvLhLRF-29">
          <mxGeometry relative="1" as="geometry" />
        </mxCell>
        <mxCell id="_2JUVef5gmnUwdvLhLRF-36" value="消费" style="edgeLabel;html=1;align=center;verticalAlign=middle;resizable=0;points=[];" vertex="1" connectable="0" parent="_2JUVef5gmnUwdvLhLRF-33">
          <mxGeometry x="0.6" relative="1" as="geometry">
            <mxPoint as="offset" />
          </mxGeometry>
        </mxCell>
        <mxCell id="_2JUVef5gmnUwdvLhLRF-34" style="edgeStyle=orthogonalEdgeStyle;rounded=0;orthogonalLoop=1;jettySize=auto;html=1;exitX=0.5;exitY=0;exitDx=0;exitDy=0;entryX=0.5;entryY=1;entryDx=0;entryDy=0;entryPerimeter=0;" edge="1" parent="1" source="_2JUVef5gmnUwdvLhLRF-1" target="_2JUVef5gmnUwdvLhLRF-32">
          <mxGeometry relative="1" as="geometry" />
        </mxCell>
        <mxCell id="_2JUVef5gmnUwdvLhLRF-35" value="消费" style="edgeLabel;html=1;align=center;verticalAlign=middle;resizable=0;points=[];" vertex="1" connectable="0" parent="_2JUVef5gmnUwdvLhLRF-34">
          <mxGeometry x="-0.1543" relative="1" as="geometry">
            <mxPoint as="offset" />
          </mxGeometry>
        </mxCell>
        <mxCell id="_2JUVef5gmnUwdvLhLRF-39" style="edgeStyle=orthogonalEdgeStyle;rounded=0;orthogonalLoop=1;jettySize=auto;html=1;exitX=0.5;exitY=1;exitDx=0;exitDy=0;" edge="1" parent="1" source="_2JUVef5gmnUwdvLhLRF-1" target="_2JUVef5gmnUwdvLhLRF-16">
          <mxGeometry relative="1" as="geometry" />
        </mxCell>
        <mxCell id="_2JUVef5gmnUwdvLhLRF-40" value="生产" style="edgeLabel;html=1;align=center;verticalAlign=middle;resizable=0;points=[];" vertex="1" connectable="0" parent="_2JUVef5gmnUwdvLhLRF-39">
          <mxGeometry x="0.2098" y="1" relative="1" as="geometry">
            <mxPoint as="offset" />
          </mxGeometry>
        </mxCell>
        <mxCell id="_2JUVef5gmnUwdvLhLRF-42" style="edgeStyle=orthogonalEdgeStyle;rounded=0;orthogonalLoop=1;jettySize=auto;html=1;exitX=1;exitY=0.5;exitDx=0;exitDy=0;" edge="1" parent="1" source="_2JUVef5gmnUwdvLhLRF-1" target="_2JUVef5gmnUwdvLhLRF-23">
          <mxGeometry relative="1" as="geometry" />
        </mxCell>
        <mxCell id="_2JUVef5gmnUwdvLhLRF-1" value="login" style="whiteSpace=wrap;html=1;aspect=fixed;" vertex="1" parent="1">
          <mxGeometry x="374" y="210" width="80" height="80" as="geometry" />
        </mxCell>
        <mxCell id="_2JUVef5gmnUwdvLhLRF-3" style="edgeStyle=orthogonalEdgeStyle;rounded=0;orthogonalLoop=1;jettySize=auto;html=1;exitX=0;exitY=0.5;exitDx=0;exitDy=0;entryX=0.5;entryY=1;entryDx=0;entryDy=0;" edge="1" parent="1" source="_2JUVef5gmnUwdvLhLRF-1" target="_2JUVef5gmnUwdvLhLRF-2">
          <mxGeometry relative="1" as="geometry">
            <mxPoint x="330" y="160" as="targetPoint" />
          </mxGeometry>
        </mxCell>
        <mxCell id="_2JUVef5gmnUwdvLhLRF-4" value="实时拉取白名单等配置" style="edgeLabel;html=1;align=center;verticalAlign=middle;resizable=0;points=[];" vertex="1" connectable="0" parent="_2JUVef5gmnUwdvLhLRF-3">
          <mxGeometry x="0.15" relative="1" as="geometry">
            <mxPoint as="offset" />
          </mxGeometry>
        </mxCell>
        <mxCell id="_2JUVef5gmnUwdvLhLRF-2" value="apollo" style="rounded=1;whiteSpace=wrap;html=1;" vertex="1" parent="1">
          <mxGeometry x="50" width="120" height="60" as="geometry" />
        </mxCell>
        <mxCell id="_2JUVef5gmnUwdvLhLRF-12" value="usercenter-main&lt;br&gt;（mysql)" style="strokeWidth=2;html=1;shape=mxgraph.flowchart.stored_data;whiteSpace=wrap;" vertex="1" parent="1">
          <mxGeometry x="170" y="390" width="100" height="60" as="geometry" />
        </mxCell>
        <mxCell id="_2JUVef5gmnUwdvLhLRF-13" value="redis" style="strokeWidth=2;html=1;shape=mxgraph.flowchart.stored_data;whiteSpace=wrap;" vertex="1" parent="1">
          <mxGeometry x="364" y="390" width="100" height="60" as="geometry" />
        </mxCell>
        <mxCell id="_2JUVef5gmnUwdvLhLRF-16" value="虎鲸mq" style="strokeWidth=2;html=1;shape=mxgraph.flowchart.sequential_data;whiteSpace=wrap;" vertex="1" parent="1">
          <mxGeometry x="600" y="390" width="70" height="60" as="geometry" />
        </mxCell>
        <mxCell id="_2JUVef5gmnUwdvLhLRF-18" value="shop&lt;br&gt;（创建用户邀请关系、团购信息）" style="rounded=1;whiteSpace=wrap;html=1;" vertex="1" parent="1">
          <mxGeometry x="800" y="280" width="120" height="60" as="geometry" />
        </mxCell>
        <mxCell id="_2JUVef5gmnUwdvLhLRF-19" value="user-center&lt;br&gt;（生成uid，更新昵称等）" style="rounded=1;whiteSpace=wrap;html=1;" vertex="1" parent="1">
          <mxGeometry x="800" y="40" width="120" height="60" as="geometry" />
        </mxCell>
        <mxCell id="_2JUVef5gmnUwdvLhLRF-21" value="api-logic&lt;br&gt;(购买用户是否在引导步骤)" style="rounded=1;whiteSpace=wrap;html=1;" vertex="1" parent="1">
          <mxGeometry x="800" y="400" width="120" height="60" as="geometry" />
        </mxCell>
        <mxCell id="_2JUVef5gmnUwdvLhLRF-22" value="api-console&lt;br&gt;(获取购买信息)" style="rounded=1;whiteSpace=wrap;html=1;" vertex="1" parent="1">
          <mxGeometry x="800" y="340" width="120" height="60" as="geometry" />
        </mxCell>
        <mxCell id="_2JUVef5gmnUwdvLhLRF-23" value="channel&lt;br&gt;（取渠道tag信息)" style="rounded=1;whiteSpace=wrap;html=1;" vertex="1" parent="1">
          <mxGeometry x="800" y="220" width="120" height="60" as="geometry" />
        </mxCell>
        <mxCell id="_2JUVef5gmnUwdvLhLRF-24" value="push-center&lt;br&gt;（推送微信公众号信息)" style="rounded=1;whiteSpace=wrap;html=1;" vertex="1" parent="1">
          <mxGeometry x="800" y="460" width="120" height="60" as="geometry" />
        </mxCell>
        <mxCell id="_2JUVef5gmnUwdvLhLRF-25" value="api-order&lt;br&gt;获取订单信息" style="rounded=1;whiteSpace=wrap;html=1;" vertex="1" parent="1">
          <mxGeometry x="800" y="580" width="120" height="60" as="geometry" />
        </mxCell>
        <mxCell id="_2JUVef5gmnUwdvLhLRF-26" value="crm-class-center&lt;br&gt;(用户班级等信息" style="rounded=1;whiteSpace=wrap;html=1;" vertex="1" parent="1">
          <mxGeometry x="800" y="100" width="120" height="60" as="geometry" />
        </mxCell>
        <mxCell id="_2JUVef5gmnUwdvLhLRF-27" value="message-api&lt;br&gt;(消息中心,&lt;br&gt;短信消息推送、微信公众号推送等)" style="rounded=1;whiteSpace=wrap;html=1;" vertex="1" parent="1">
          <mxGeometry x="800" y="160" width="120" height="60" as="geometry" />
        </mxCell>
        <mxCell id="_2JUVef5gmnUwdvLhLRF-28" value="微信sdk" style="rounded=1;whiteSpace=wrap;html=1;" vertex="1" parent="1">
          <mxGeometry x="800" y="-20" width="120" height="60" as="geometry" />
        </mxCell>
        <mxCell id="_2JUVef5gmnUwdvLhLRF-29" value="微信取消订阅" style="strokeWidth=2;html=1;shape=mxgraph.flowchart.sequential_data;whiteSpace=wrap;" vertex="1" parent="1">
          <mxGeometry x="379" width="70" height="60" as="geometry" />
        </mxCell>
        <mxCell id="_2JUVef5gmnUwdvLhLRF-30" value="&lt;span&gt;微信订阅+扫码关注&lt;/span&gt;" style="strokeWidth=2;html=1;shape=mxgraph.flowchart.sequential_data;whiteSpace=wrap;" vertex="1" parent="1">
          <mxGeometry x="284" width="70" height="60" as="geometry" />
        </mxCell>
        <mxCell id="_2JUVef5gmnUwdvLhLRF-31" value="微信账号变动mq" style="strokeWidth=2;html=1;shape=mxgraph.flowchart.sequential_data;whiteSpace=wrap;" vertex="1" parent="1">
          <mxGeometry x="530" y="390" width="70" height="60" as="geometry" />
        </mxCell>
        <mxCell id="_2JUVef5gmnUwdvLhLRF-32" value="微信扫码登录" style="strokeWidth=2;html=1;shape=mxgraph.flowchart.sequential_data;whiteSpace=wrap;" vertex="1" parent="1">
          <mxGeometry x="474" width="70" height="60" as="geometry" />
        </mxCell>
        <mxCell id="_2JUVef5gmnUwdvLhLRF-37" value="data-center" style="rounded=1;whiteSpace=wrap;html=1;" vertex="1" parent="1">
          <mxGeometry x="800" y="520" width="120" height="60" as="geometry" />
        </mxCell>
        <mxCell id="_2JUVef5gmnUwdvLhLRF-38" value="token变化mq" style="strokeWidth=2;html=1;shape=mxgraph.flowchart.sequential_data;whiteSpace=wrap;" vertex="1" parent="1">
          <mxGeometry x="670" y="390" width="70" height="60" as="geometry" />
        </mxCell>
      </root>
    </mxGraphModel>
  </diagram>
</mxfile>
